<?xml version="1.0" encoding="UTF-8"?>
<svg xmlns="http://www.w3.org/2000/svg" xmlns:xlink="http://www.w3.org/1999/xlink" width="298.08" height="44.64" viewBox="0 0 298.08 44.64">
<path fill-rule="nonzero" fill="rgb(93.333435%, 20.783997%, 19.607544%)" fill-opacity="1" d="M 127.054688 12.863281 C 126.941406 10.964844 126.214844 9.621094 124.882812 8.824219 C 123.546875 8.023438 121.710938 7.625 119.382812 7.625 C 117.160156 7.625 115.449219 8.035156 114.246094 8.855469 C 113.042969 9.679688 112.476562 11.011719 112.554688 12.855469 C 112.589844 13.792969 113.015625 14.578125 113.828125 15.21875 C 114.640625 15.855469 115.613281 16.390625 116.746094 16.828125 C 117.878906 17.261719 119.058594 17.613281 120.285156 17.882812 C 121.511719 18.152344 122.523438 18.382812 123.316406 18.585938 C 125.355469 19.15625 127.214844 19.785156 128.894531 20.472656 C 130.574219 21.15625 132.019531 21.980469 133.226562 22.933594 C 134.4375 23.890625 135.378906 25.011719 136.058594 26.304688 C 136.738281 27.59375 137.078125 29.144531 137.078125 30.953125 C 137.078125 33.265625 136.613281 35.234375 135.6875 36.863281 C 134.761719 38.484375 133.484375 39.792969 131.859375 40.785156 C 130.234375 41.769531 128.34375 42.476562 126.1875 42.894531 C 124.03125 43.3125 121.742188 43.488281 119.320312 43.421875 C 116.789062 43.355469 114.492188 43.035156 112.429688 42.464844 C 110.367188 41.894531 108.589844 41.039062 107.09375 39.898438 C 105.601562 38.757812 104.429688 37.320312 103.578125 35.59375 C 102.726562 33.867188 102.246094 31.808594 102.132812 29.425781 L 111.082031 29.425781 C 111.15625 31.742188 111.960938 33.511719 113.488281 34.738281 C 115.019531 35.960938 117.027344 36.589844 119.519531 36.625 C 122.351562 36.65625 124.484375 36.265625 125.921875 35.441406 C 127.355469 34.621094 128.015625 33.101562 127.902344 30.886719 C 127.863281 29.847656 127.5625 28.988281 126.996094 28.320312 C 126.429688 27.644531 125.675781 27.074219 124.730469 26.605469 C 123.789062 26.136719 122.691406 25.734375 121.445312 25.398438 C 120.199219 25.0625 118.898438 24.710938 117.539062 24.339844 C 115.953125 23.972656 114.316406 23.519531 112.640625 22.980469 C 110.960938 22.445312 109.4375 21.746094 108.078125 20.890625 C 106.71875 20.035156 105.59375 18.972656 104.710938 17.695312 C 103.820312 16.417969 103.378906 14.859375 103.378906 13.011719 C 103.378906 11 103.785156 9.21875 104.597656 7.675781 C 105.40625 6.132812 106.519531 4.847656 107.9375 3.824219 C 109.351562 2.800781 111.042969 2.019531 113.007812 1.484375 C 114.96875 0.945312 117.105469 0.675781 119.40625 0.675781 C 122.011719 0.675781 124.335938 0.964844 126.375 1.53125 C 128.414062 2.101562 130.140625 2.917969 131.554688 3.976562 C 132.972656 5.03125 134.066406 6.316406 134.84375 7.828125 C 135.617188 9.335938 136.039062 11.015625 136.117188 12.863281 Z M 127.054688 12.863281 "/>
<path fill-rule="nonzero" fill="rgb(93.333435%, 20.783997%, 19.607544%)" fill-opacity="1" d="M 172.707031 1.984375 L 172.707031 8.832031 L 152.824219 8.832031 L 152.824219 18.75 L 170.382812 18.75 L 170.382812 25.699219 L 152.824219 25.699219 L 152.824219 35.71875 L 173.328125 35.71875 L 173.328125 42.667969 L 143.648438 42.667969 L 143.648438 1.984375 Z M 172.707031 1.984375 "/>
<path fill-rule="nonzero" fill="rgb(93.333435%, 20.783997%, 19.607544%)" fill-opacity="1" d="M 187.375 26.371094 C 187.375 30.058594 188.214844 32.707031 189.894531 34.3125 C 191.574219 35.921875 194.019531 36.726562 197.230469 36.726562 C 200.402344 36.726562 202.828125 35.921875 204.507812 34.3125 C 206.1875 32.707031 207.027344 30.058594 207.027344 26.371094 L 207.027344 18.027344 C 207.027344 14.308594 206.179688 11.644531 204.480469 10.039062 C 202.78125 8.429688 200.363281 7.625 197.230469 7.625 C 194.058594 7.625 191.625 8.429688 189.925781 10.039062 C 188.222656 11.644531 187.375 14.308594 187.375 18.027344 Z M 178.371094 16.886719 C 178.371094 14.203125 178.8125 11.855469 179.699219 9.839844 C 180.589844 7.828125 181.851562 6.140625 183.496094 4.78125 C 185.136719 3.421875 187.121094 2.398438 189.441406 1.710938 C 191.765625 1.019531 194.359375 0.675781 197.230469 0.675781 C 200.101562 0.675781 202.707031 1.019531 205.046875 1.710938 C 207.386719 2.398438 209.378906 3.421875 211.023438 4.78125 C 212.664062 6.140625 213.9375 7.828125 214.847656 9.839844 C 215.75 11.855469 216.203125 14.203125 216.203125 16.886719 L 216.203125 27.363281 C 216.203125 30.011719 215.75 32.34375 214.847656 34.359375 C 213.9375 36.375 212.664062 38.050781 211.023438 39.394531 C 209.378906 40.738281 207.386719 41.753906 205.046875 42.441406 C 202.707031 43.128906 200.101562 43.472656 197.230469 43.472656 C 194.359375 43.472656 191.765625 43.128906 189.441406 42.441406 C 187.121094 41.753906 185.136719 40.738281 183.496094 39.394531 C 181.851562 38.050781 180.589844 36.375 179.699219 34.359375 C 178.8125 32.34375 178.371094 30.011719 178.371094 27.363281 Z M 178.371094 16.886719 "/>
<path fill-rule="nonzero" fill="rgb(93.333435%, 20.783997%, 19.607544%)" fill-opacity="1" d="M 241.890625 36.726562 C 247.613281 36.726562 250.472656 33.941406 250.472656 28.367188 L 250.472656 1.988281 L 259.535156 1.988281 L 259.535156 27.410156 C 259.535156 33.015625 258.109375 37.09375 255.257812 39.644531 C 252.40625 42.195312 247.941406 43.472656 241.863281 43.472656 C 235.746094 43.472656 231.269531 42.195312 228.4375 39.644531 C 225.605469 37.09375 224.191406 33.015625 224.191406 27.410156 L 224.191406 1.988281 L 233.367188 1.988281 L 233.367188 28.367188 C 233.367188 33.941406 236.207031 36.726562 241.890625 36.726562 "/>
<path fill-rule="nonzero" fill="rgb(93.333435%, 20.783997%, 19.607544%)" fill-opacity="1" d="M 277.488281 1.984375 L 277.488281 35.71875 L 295.671875 35.71875 L 295.671875 42.667969 L 268.3125 42.667969 L 268.3125 1.984375 Z M 277.488281 1.984375 "/>
<path fill-rule="nonzero" fill="rgb(93.333435%, 20.783997%, 19.607544%)" fill-opacity="1" d="M 32.945312 8.636719 L 36.003906 8.636719 L 36.003906 1.933594 L 44.304688 1.933594 L 44.304688 23.054688 L 36.003906 23.054688 L 36.003906 15.089844 L 32.945312 15.089844 L 32.945312 23.054688 L 24.644531 23.054688 L 24.644531 1.933594 L 32.945312 1.933594 Z M 35.457031 34.511719 L 13.285156 34.511719 L 13.285156 37.328125 L 35.457031 37.328125 Z M 14.214844 8.683594 L 9.515625 8.683594 L 9.515625 16.304688 L 14.214844 16.304688 Z M 44.304688 43.542969 L 4.4375 43.542969 L 4.4375 25.09375 L 13.285156 25.09375 L 13.285156 28.296875 L 35.457031 28.296875 L 35.457031 25.09375 L 44.304688 25.09375 Z M 22.515625 23.003906 L 1.214844 23.003906 L 1.214844 1.933594 L 22.515625 1.933594 Z M 22.515625 23.003906 "/>
<path fill-rule="nonzero" fill="rgb(93.333435%, 20.783997%, 19.607544%)" fill-opacity="1" d="M 97.285156 14.605469 L 91.113281 14.65625 L 91.113281 21.453125 L 82.265625 21.453125 L 82.265625 1.886719 L 91.113281 1.886719 L 91.113281 7.90625 L 97.285156 7.90625 Z M 91.660156 37.765625 L 91.660156 43.492188 L 52.117188 43.492188 L 52.117188 30.53125 L 81.71875 30.53125 L 81.71875 28.878906 L 52.117188 28.878906 L 52.117188 23.152344 L 91.113281 23.152344 L 91.113281 35.871094 L 61.5625 35.871094 L 61.5625 37.765625 Z M 77.402344 20.773438 L 50.914062 20.773438 L 50.914062 1.9375 L 75.820312 1.9375 L 75.820312 8.101562 L 59.761719 8.101562 L 59.761719 14.511719 L 77.402344 14.558594 Z M 77.402344 20.773438 "/>
</svg>
